<svg width="23" height="13" viewBox="0 0 23 13" fill="none" xmlns="http://www.w3.org/2000/svg">
<path d="M1.25481 0.00295991C1.00542 0.00203183 0.761465 0.0757741 0.554284 0.214599C0.347103 0.353425 0.186149 0.550913 0.0921713 0.781921C-0.00180651 1.01293 -0.0245648 1.2668 0.0268637 1.51083C0.0782922 1.75487 0.201579 1.97796 0.380791 2.1514L10.3808 12.1514C10.6152 12.3857 10.9331 12.5175 11.2646 12.5175C11.5961 12.5175 11.9139 12.3857 12.1484 12.1514L22.1484 2.1514C22.2682 2.03619 22.3639 1.8983 22.4297 1.74567C22.4956 1.59304 22.5304 1.42881 22.5321 1.26257C22.5337 1.09634 22.5022 0.931397 22.4394 0.777496C22.3765 0.623596 22.2835 0.483823 22.166 0.366272C22.0484 0.24872 21.9086 0.155695 21.7547 0.0928342C21.6008 0.0299736 21.4359 -0.00157836 21.2697 6.07365e-05C21.1035 0.00169983 20.9392 0.0365642 20.7866 0.102447C20.634 0.16833 20.496 0.263972 20.3808 0.383819L11.2646 9.50003L2.14837 0.383819C2.03237 0.263928 1.89359 0.168466 1.74012 0.103058C1.58666 0.0376494 1.42164 0.00360878 1.25481 0.00295991Z" fill="white"/>
</svg>
