<svg width="30" height="30" viewBox="0 0 30 30" fill="none" xmlns="http://www.w3.org/2000/svg">
<g opacity="0.99">
<path d="M14.9222 4.49122C13.5791 4.55062 12.9861 6.21055 13.9876 7.10742L16.0472 9.00585H6.00134C3.95986 8.964 3.95986 12.0478 6.00134 12.0058H10.639C10.6345 12.0088 10.6315 12.0118 10.627 12.0148L3.50205 18.3869C2.00987 19.7209 4.01084 21.9591 5.50302 20.6251L9.01277 17.4845C9.13622 21.9174 12.7897 25.506 17.251 25.506C21.7895 25.506 25.4981 21.7946 25.4981 17.256C25.4981 14.9076 24.5018 12.7851 22.9141 11.2795L16.0147 4.90156C15.7207 4.62294 15.3269 4.47483 14.9222 4.49122ZM17.2513 12.0058C20.1684 12.0058 22.5013 14.3385 22.5013 17.2558C22.5013 20.1732 20.1684 22.5058 17.2513 22.5058C14.3342 22.5058 12.0013 20.1732 12.0013 17.2558C12.0013 14.3385 14.3342 12.0058 17.2513 12.0058ZM17.2249 14.6836C16.8835 14.6835 16.5455 14.75 16.2302 14.8792C15.9148 15.0085 15.6283 15.1979 15.3869 15.4368C15.1456 15.6757 14.9542 15.9593 14.8237 16.2715C14.6932 16.5836 14.6261 16.918 14.6263 17.2558C14.6267 17.9375 14.9007 18.5911 15.388 19.073C15.8753 19.5548 16.536 19.8253 17.2249 19.8252C17.9137 19.8253 18.5745 19.5548 19.0618 19.073C19.5491 18.5911 19.8231 17.9375 19.8235 17.2558C19.8237 16.918 19.7566 16.5836 19.6261 16.2715C19.4956 15.9593 19.3042 15.6757 19.0628 15.4368C18.8215 15.1979 18.535 15.0085 18.2196 14.8792C17.9042 14.75 17.5662 14.6835 17.2249 14.6836Z" fill="white"/>
</g>
</svg>
