<svg width="21" height="21" viewBox="0 0 21 21" fill="none" xmlns="http://www.w3.org/2000/svg">
<path fill-rule="evenodd" clip-rule="evenodd" d="M0.75 0C0.551094 1.98876e-05 0.36034 0.0790328 0.219692 0.219681C0.0790443 0.360329 1.98876e-05 0.551094 0 0.75V5.25C1.98876e-05 5.44891 0.0790443 5.63967 0.219692 5.78032C0.36034 5.92097 0.551094 5.99998 0.75 6H2.17383L7.5 15.9404V20.25C7.50002 20.4489 7.57904 20.6397 7.71969 20.7803C7.86034 20.921 8.05109 21 8.25 21H12.75C12.9489 21 13.1397 20.921 13.2803 20.7803C13.421 20.6397 13.5 20.4489 13.5 20.25V15.9404L18.8262 6H20.25C20.4489 5.99998 20.6397 5.92097 20.7803 5.78032C20.921 5.63967 21 5.44891 21 5.25V0.75C21 0.551094 20.921 0.360329 20.7803 0.219681C20.6397 0.0790328 20.4489 1.98876e-05 20.25 0H15.75C15.5511 1.98876e-05 15.3603 0.0790328 15.2197 0.219681C15.079 0.360329 15 0.551094 15 0.75V1.5H6V0.75C5.99998 0.551094 5.92096 0.360329 5.78031 0.219681C5.63966 0.0790328 5.44891 1.98876e-05 5.25 0H0.75ZM1.5 1.5H4.5V4.5H1.5V1.5ZM16.5 1.5H19.5V4.5H16.5V1.5ZM6 3H15V5.25C15 5.44891 15.079 5.63967 15.2197 5.78032C15.3603 5.92097 15.5511 5.99998 15.75 6H17.1211L12.2988 15H8.70117L3.87891 6H5.25C5.44891 5.99998 5.63966 5.92097 5.78031 5.78032C5.92096 5.63967 5.99998 5.44891 6 5.25V3ZM9 16.5H12V19.5H9V16.5Z" fill="#01D1A1"/>
</svg>
