<svg width="25" height="25" viewBox="0 0 25 25" fill="none" xmlns="http://www.w3.org/2000/svg">
<path d="M5.44344 3.62903C5.1343 3.62914 4.83031 3.70824 4.5603 3.8588C4.2903 4.00935 4.06323 4.22639 3.90064 4.48933C3.73806 4.75226 3.64533 5.05236 3.63127 5.36118C3.61721 5.67001 3.68228 5.97731 3.8203 6.25393L10.4735 19.5604C10.6242 19.8618 10.8559 20.1154 11.1426 20.2925C11.4293 20.4697 11.7596 20.5636 12.0967 20.5636C12.4337 20.5636 12.7641 20.4697 13.0507 20.2925C13.3374 20.1154 13.5691 19.8618 13.7198 19.5604L20.373 6.25393C20.5111 5.97731 20.5761 5.67001 20.5621 5.36118C20.548 5.05236 20.4553 4.75226 20.2927 4.48933C20.1301 4.22639 19.903 4.00935 19.633 3.8588C19.363 3.70824 19.059 3.62914 18.7499 3.62903H5.44344ZM8.37786 7.25806H15.8155L12.0967 14.6933L8.37786 7.25806Z" fill="#E09558"/>
</svg>
