<svg width="22" height="22" viewBox="0 0 22 22" fill="none" xmlns="http://www.w3.org/2000/svg">
<path d="M6.75 0C6.33466 4.5e-05 5.99843 0.337595 6 0.75293L6.01199 5.26465C6.01349 5.6777 6.34894 6.01167 6.76199 6.01172H15.012V14.2646C15.012 14.6788 15.3478 15.0146 15.762 15.0146H20.262C20.6762 15.0146 21.0119 14.6788 21.012 14.2646V0.764648C21.0119 0.350453 20.6762 0.0146934 20.262 0.0146484L6.75 0ZM0.75 6.00586C0.335805 6.0059 4.5e-05 6.34166 0 6.75586V20.2559C4.5e-05 20.6701 0.335805 21.0058 0.75 21.0059L14.2617 21.0209C14.6771 21.0208 15.0133 20.6833 15.0117 20.2679L14.9997 15.7592C14.9997 15.345 14.6639 15.0092 14.2497 15.0092H5.99973V6.75618C5.99968 6.34198 5.66392 6.00622 5.24973 6.00618L0.75 6.00586Z" fill="white"/>
</svg>
