<svg width="30" height="30" viewBox="0 0 30 30" fill="none" xmlns="http://www.w3.org/2000/svg">
<path d="M18.75 4.50008C18.6506 4.49867 18.552 4.51703 18.4597 4.55409C18.3675 4.59115 18.2835 4.64617 18.2128 4.71596C18.142 4.78574 18.0858 4.86889 18.0474 4.96059C18.0091 5.05228 17.9893 5.15068 17.9893 5.25008C17.9893 5.34947 18.0091 5.44787 18.0474 5.53956C18.0858 5.63126 18.142 5.71441 18.2128 5.78419C18.2835 5.85398 18.3675 5.909 18.4597 5.94606C18.552 5.98312 18.6506 6.00148 18.75 6.00007H22.9424L18.4893 10.4532C18.8563 10.7933 19.2097 11.1467 19.5498 11.5137L24 7.06355V11.2501C23.9986 11.3495 24.017 11.4481 24.054 11.5403C24.0911 11.6325 24.1461 11.7165 24.2159 11.7873C24.2857 11.8581 24.3688 11.9143 24.4605 11.9527C24.5522 11.991 24.6506 12.0107 24.75 12.0107C24.8494 12.0107 24.9478 11.991 25.0395 11.9527C25.1312 11.9143 25.2143 11.8581 25.2841 11.7873C25.3539 11.7165 25.4089 11.6325 25.446 11.5403C25.483 11.4481 25.5014 11.3495 25.5 11.2501V5.25008C25.5 5.05117 25.421 4.86045 25.2803 4.7198C25.1397 4.57915 24.9489 4.50009 24.75 4.50008H18.75ZM14.2734 14.669L9.01465 19.9278C8.56757 19.6622 8.05415 19.5001 7.5 19.5001C5.85203 19.5001 4.5 20.852 4.5 22.5001C4.5 24.148 5.85203 25.5001 7.5 25.5001C9.14797 25.5001 10.5 24.148 10.5 22.5001C10.5 21.9485 10.3384 21.434 10.0752 20.9884L15.334 15.7296C15.0002 15.3559 14.6469 15.0031 14.2734 14.669ZM7.5 21.0001C8.33732 21.0001 9 21.6626 9 22.5001C9 23.3374 8.33732 24.0001 7.5 24.0001C6.66268 24.0001 6 23.3374 6 22.5001C6 21.6626 6.66268 21.0001 7.5 21.0001Z" fill="white"/>
<path d="M5.25676 7.50003C5.15776 7.49915 5.05958 7.51787 4.96786 7.55514C4.87615 7.59242 4.79273 7.64751 4.72241 7.71719C4.6521 7.78687 4.59626 7.86972 4.55817 7.96109C4.52008 8.05246 4.50049 8.15049 4.50049 8.24948C4.50049 8.34847 4.52008 8.4465 4.55817 8.53787C4.59626 8.62924 4.6521 8.71209 4.72241 8.78177C4.79273 8.85145 4.87615 8.90654 4.96786 8.94382C5.05958 8.98109 5.15776 8.99981 5.25676 8.99893C13.9614 8.99893 21.0009 16.0371 21.0009 24.74C20.9995 24.8393 21.0178 24.9379 21.0549 25.03C21.0919 25.1221 21.1469 25.2061 21.2166 25.2768C21.2864 25.3475 21.3695 25.4037 21.4611 25.442C21.5528 25.4803 21.6511 25.5 21.7504 25.5C21.8498 25.5 21.9481 25.4803 22.0397 25.442C22.1314 25.4037 22.2145 25.3475 22.2842 25.2768C22.354 25.2061 22.409 25.1221 22.446 25.03C22.4831 24.9379 22.5014 24.8393 22.5 24.74C22.5 15.2273 14.7716 7.50003 5.25676 7.50003Z" fill="white"/>
</svg>
