<svg width="21" height="21" viewBox="0 0 21 21" fill="none" xmlns="http://www.w3.org/2000/svg">
<g clip-path="url(#clip0_18_2906)">
<path d="M6.74122 5.98536C6.32473 5.98386 5.9867 6.3218 5.98829 6.73829L6.00028 14.2471C6.00033 14.6613 6.33609 14.997 6.75028 14.9971H14.2503C14.6645 14.997 15.0002 14.6613 15.0003 14.2471V6.75001C15.0002 6.33581 14.6645 6.00005 14.2503 6L6.74122 5.98536Z" fill="white"/>
<path d="M6 0V0.00585938H5.99414V3.00586H7.49414V1.5H9V0H6ZM12 0V1.5H15V0H12ZM17.9941 0.00585938V1.50586H19.4941V3.00586H21V0L17.9941 0.00585938ZM19.5 6V9H21V6H19.5ZM0 6.00298V9.00298H1.5V7.50298H3V6.00298H0ZM19.5 12V13.5H18V15H21V12H19.5ZM0 12.0031V15.0031H1.5V12.0031H0ZM0 18.0031V21.0031H3V19.5031H1.5V18.0031H0ZM13.5 18.0031V19.5031H12V21.0031H15V18.0031H13.5ZM6 19.5031V21.0031H9V19.5031H6Z" fill="white"/>
</g>
<defs>
<clipPath id="clip0_18_2906">
<rect width="21" height="21" fill="white"/>
</clipPath>
</defs>
</svg>
