<svg width="15" height="18" viewBox="0 0 15 18" fill="none" xmlns="http://www.w3.org/2000/svg">
<path d="M4.23387 12.6728C4.15372 12.6717 4.07415 12.6858 3.99977 12.7143C3.9254 12.7428 3.85771 12.785 3.80063 12.8386C3.74355 12.8922 3.69822 12.9561 3.66729 13.0265C3.63635 13.0969 3.62042 13.1725 3.62042 13.2488C3.62042 13.3252 3.63635 13.4008 3.66729 13.4712C3.69822 13.5416 3.74355 13.6055 3.80063 13.6591C3.85771 13.7127 3.9254 13.7549 3.99977 13.7834C4.07415 13.8119 4.15372 13.826 4.23387 13.8249H10.2823C10.3624 13.826 10.442 13.8119 10.5164 13.7834C10.5907 13.7549 10.6584 13.7127 10.7155 13.6591C10.7726 13.6055 10.8179 13.5416 10.8488 13.4712C10.8798 13.4008 10.8957 13.3252 10.8957 13.2488C10.8957 13.1725 10.8798 13.0969 10.8488 13.0265C10.8179 12.9561 10.7726 12.8922 10.7155 12.8386C10.6584 12.785 10.5907 12.7428 10.5164 12.7143C10.442 12.6858 10.3624 12.6717 10.2823 12.6728H4.23387ZM4.23387 14.977C4.15372 14.9759 4.07415 14.99 3.99977 15.0184C3.9254 15.0469 3.85771 15.0892 3.80063 15.1428C3.74355 15.1964 3.69822 15.2602 3.66729 15.3307C3.63635 15.4011 3.62042 15.4767 3.62042 15.553C3.62042 15.6293 3.63635 15.7049 3.66729 15.7753C3.69822 15.8458 3.74355 15.9096 3.80063 15.9632C3.85771 16.0168 3.9254 16.0591 3.99977 16.0875C4.07415 16.116 4.15372 16.1301 4.23387 16.129H6.04839V16.7051C6.0484 16.8578 6.11213 17.0044 6.22556 17.1124C6.33898 17.2204 6.49282 17.2811 6.65323 17.2811H7.8629C8.02331 17.2811 8.17714 17.2204 8.29057 17.1124C8.404 17.0044 8.46773 16.8578 8.46774 16.7051V16.129H10.2823C10.3624 16.1301 10.442 16.116 10.5164 16.0875C10.5907 16.0591 10.6584 16.0168 10.7155 15.9632C10.7726 15.9096 10.8179 15.8458 10.8488 15.7753C10.8798 15.7049 10.8957 15.6293 10.8957 15.553C10.8957 15.4767 10.8798 15.4011 10.8488 15.3307C10.8179 15.2602 10.7726 15.1964 10.7155 15.1428C10.6584 15.0892 10.5907 15.0469 10.5164 15.0184C10.442 14.99 10.3624 14.9759 10.2823 14.977H4.23387ZM7.25806 0C3.28633 0 0 2.81267 0 6.3364C0 8.32051 1.31564 10.132 2.59657 11.3519C2.71028 11.4602 2.86379 11.5207 3.02419 11.5207H11.4919C11.6523 11.5207 11.8062 11.4597 11.9196 11.3519C12.7795 10.533 13.64 9.44954 14.1287 8.22431C14.3681 7.62431 14.5161 6.98848 14.5161 6.3364C14.5161 2.81267 11.2298 0 7.25806 0ZM4.22201 5.76715C4.38544 5.76715 4.54403 5.82133 4.66149 5.92916L5.69395 6.91244H8.82218L9.85464 5.92916C10.4246 5.41004 11.255 6.20079 10.7099 6.74365L9.67742 7.72696V9.79263V10.3687H8.46774V9.79263V8.06452H6.04839V9.79263V10.3687H4.83871V9.79263V7.72696L3.80625 6.74365C3.44093 6.38431 3.69737 5.78271 4.22201 5.76715Z" fill="#E09558"/>
</svg>
