<svg width="16" height="19" viewBox="0 0 16 19" fill="none" xmlns="http://www.w3.org/2000/svg">
<path d="M7.84042 3.33219e-05C4.01347 0.0109204 0.745622 2.80176 0.109828 6.59419C-0.525955 10.3866 1.65188 14.0998 5.26277 15.3738C5.33781 15.4007 5.41744 15.4124 5.49704 15.4084C5.57665 15.4044 5.65466 15.3847 5.72662 15.3504C5.79859 15.3162 5.86308 15.2681 5.91638 15.2088C5.96967 15.1495 6.01074 15.0803 6.0372 15.0051C6.06367 14.9299 6.075 14.8502 6.07058 14.7707C6.06615 14.6911 6.04604 14.6132 6.0114 14.5414C5.97676 14.4696 5.92826 14.4053 5.86872 14.3524C5.80917 14.2994 5.73974 14.2587 5.66442 14.2326C2.60412 13.1529 0.762652 10.0179 1.30297 6.79502C1.84328 3.57209 4.60286 1.21913 7.84515 1.20971C11.0874 1.20003 13.8593 3.53513 14.418 6.75485C14.9768 9.97459 13.1532 13.121 10.0991 14.2185C10.0243 14.2455 9.9556 14.2869 9.89685 14.3405C9.8381 14.394 9.7905 14.4586 9.75672 14.5306C9.72293 14.6026 9.70362 14.6805 9.69994 14.7599C9.69626 14.8393 9.70828 14.9186 9.73527 14.9934C9.76226 15.0682 9.80372 15.1369 9.85728 15.1957C9.91083 15.2544 9.97544 15.302 10.0474 15.3358C10.1194 15.3696 10.1973 15.3889 10.2767 15.3926C10.3561 15.3963 10.4354 15.3843 10.5102 15.3573C14.1137 14.0624 16.2664 10.338 15.6088 6.5493C14.9513 2.76062 11.6674 -0.0110836 7.84042 3.33219e-05ZM7.86401 6.04842C6.86905 6.04842 6.0495 6.86798 6.0495 7.86294C6.0495 8.6454 6.55873 9.31185 7.25917 9.56404V10.2823C7.24708 11.1002 8.48042 11.1002 8.46885 10.2823V9.56404C9.16928 9.31185 9.67853 8.6454 9.67853 7.86294C9.67853 6.86798 8.85896 6.04842 7.86401 6.04842ZM7.86401 7.2581C8.20521 7.2581 8.46885 7.52173 8.46885 7.86294C8.46885 8.20414 8.20521 8.46777 7.86401 8.46777C7.5228 8.46777 7.25917 8.20414 7.25917 7.86294C7.25917 7.52173 7.5228 7.2581 7.86401 7.2581ZM7.86158 12.0779C7.52754 12.0827 7.26096 12.3582 7.26619 12.6922V13.9019C7.25409 14.7198 8.48744 14.7198 8.47586 13.9019V12.6922C8.4807 12.3508 8.20302 12.0726 7.86158 12.0779ZM7.86158 15.7069C7.52754 15.7118 7.26096 15.9872 7.26619 16.3212V17.5333C7.25409 18.3512 8.48744 18.3512 8.47586 17.5333V16.3212C8.4807 15.9798 8.20302 15.7016 7.86158 15.7069Z" fill="#01D1A1"/>
</svg>
