<svg width="30" height="30" viewBox="0 0 30 30" fill="none" xmlns="http://www.w3.org/2000/svg">
<path d="M15 5.25C9.61521 5.25 5.25 8.86521 5.25 14.25C6.75 15.75 9.75 18 15 18V5.25Z" fill="white"/>
<path fill-rule="evenodd" clip-rule="evenodd" d="M15 4.5C9.2099 4.5 4.5 9.20989 4.5 15C4.5 20.7901 9.20988 25.5 15 25.5C20.7901 25.5 25.5 20.7901 25.5 15C25.5 9.20989 20.7901 4.5 15 4.5ZM15 6C19.9794 6 24 10.0205 24 15C24 19.9795 19.9795 24 15 24C10.0205 24 6 19.9795 6 15C6 10.0205 10.0206 6 15 6Z" fill="white"/>
<path d="M22.8663 15.9668C22.6876 15.9672 22.513 16.0208 22.3648 16.1208C22.2167 16.2208 22.1016 16.3626 22.0344 16.5282C21.9671 16.6938 21.9507 16.8757 21.9872 17.0507C22.0237 17.2257 22.1115 17.3858 22.2394 17.5107L22.9894 18.2607C23.0713 18.3508 23.1707 18.4234 23.2815 18.474C23.3923 18.5245 23.5122 18.5521 23.6339 18.555C23.7557 18.5579 23.8768 18.536 23.9898 18.4908C24.1029 18.4455 24.2056 18.3777 24.2917 18.2916C24.3779 18.2055 24.4456 18.1028 24.4909 17.9897C24.5362 17.8767 24.558 17.7556 24.5551 17.6338C24.5522 17.5121 24.5247 17.3922 24.4741 17.2814C24.4235 17.1706 24.351 17.0712 24.2609 16.9893L23.5109 16.2393C23.4271 16.1531 23.3269 16.0846 23.2162 16.0378C23.1055 15.991 22.9865 15.9669 22.8663 15.9668ZM19.4913 17.0918C19.3126 17.0922 19.138 17.1458 18.9898 17.2458C18.8417 17.3458 18.7266 17.4876 18.6594 17.6532C18.5921 17.8188 18.5757 18.0007 18.6122 18.1757C18.6487 18.3507 18.7365 18.5108 18.8644 18.6357L21.4894 21.2607C21.5713 21.3508 21.6707 21.4234 21.7815 21.474C21.8923 21.5245 22.0122 21.5521 22.1339 21.555C22.2557 21.5579 22.3768 21.536 22.4898 21.4908C22.6029 21.4455 22.7056 21.3777 22.7917 21.2916C22.8779 21.2055 22.9456 21.1028 22.9909 20.9897C23.0362 20.8767 23.058 20.7556 23.0551 20.6338C23.0522 20.5121 23.0247 20.3922 22.9741 20.2814C22.9235 20.1706 22.851 20.0712 22.7609 19.9893L20.1359 17.3643C20.0521 17.2781 19.9519 17.2096 19.8412 17.1628C19.7305 17.116 19.6115 17.0919 19.4913 17.0918ZM15.7413 17.8418C15.5626 17.8422 15.388 17.8958 15.2398 17.9958C15.0917 18.0958 14.9766 18.2376 14.9094 18.4032C14.8421 18.5688 14.8257 18.7507 14.8622 18.9257C14.8987 19.1007 14.9865 19.2608 15.1144 19.3857L19.2394 23.5107C19.3213 23.6008 19.4207 23.6734 19.5315 23.724C19.6423 23.7745 19.7622 23.8021 19.8839 23.805C20.0057 23.8079 20.1268 23.786 20.2398 23.7408C20.3529 23.6955 20.4556 23.6277 20.5417 23.5416C20.6279 23.4555 20.6956 23.3528 20.7409 23.2397C20.7862 23.1267 20.808 23.0056 20.8051 22.8838C20.8022 22.7621 20.7747 22.6422 20.7241 22.5314C20.6735 22.4206 20.601 22.3212 20.5109 22.2393L16.3859 18.1143C16.3021 18.0281 16.2019 17.9596 16.0912 17.9128C15.9805 17.866 15.8615 17.8419 15.7413 17.8418ZM15.7413 22.3418C15.5626 22.3422 15.388 22.3958 15.2398 22.4958C15.0917 22.5958 14.9766 22.7376 14.9094 22.9032C14.8421 23.0688 14.8257 23.2507 14.8622 23.4257C14.8987 23.6007 14.9865 23.7608 15.1144 23.8857L16.2394 25.0107C16.3213 25.1008 16.4207 25.1734 16.5315 25.224C16.6423 25.2745 16.7622 25.3021 16.8839 25.305C17.0057 25.3079 17.1268 25.286 17.2398 25.2408C17.3529 25.1955 17.4556 25.1277 17.5417 25.0416C17.6279 24.9555 17.6956 24.8528 17.7409 24.7397C17.7862 24.6267 17.808 24.5056 17.8051 24.3838C17.8022 24.2621 17.7747 24.1422 17.7241 24.0314C17.6735 23.9206 17.601 23.8212 17.5109 23.7393L16.3859 22.6143C16.3021 22.5281 16.2019 22.4596 16.0912 22.4128C15.9805 22.366 15.8615 22.3419 15.7413 22.3418Z" fill="white"/>
</svg>
