<svg width="30" height="30" viewBox="0 0 30 30" fill="none" xmlns="http://www.w3.org/2000/svg">
<path opacity="0.6" d="M5.25 4.5C5.05109 4.50002 4.86034 4.57903 4.71969 4.71968C4.57904 4.86033 4.50002 5.05109 4.5 5.25V10.5H6V6H10.5V4.5H5.25ZM19.5 4.5V6H24V10.5H25.5V5.25C25.5 5.05109 25.421 4.86033 25.2803 4.71968C25.1397 4.57903 24.9489 4.50002 24.75 4.5H19.5ZM4.5 19.5V24.75C4.50002 24.9489 4.57904 25.1397 4.71969 25.2803C4.86034 25.421 5.05109 25.5 5.25 25.5H10.5V24H6V19.5H4.5ZM24 19.5V24H19.5V25.5H24.75C24.9489 25.5 25.1397 25.421 25.2803 25.2803C25.421 25.1397 25.5 24.9489 25.5 24.75V19.5H24Z" fill="white"/>
<path d="M9.75 9C9.3358 9.00004 9.00004 9.33581 9 9.75V20.25C9.00004 20.6642 9.3358 21 9.75 21H20.25C20.6642 21 21 20.6642 21 20.25V9.75C21 9.33581 20.6642 9.00004 20.25 9H9.75Z" fill="white"/>
</svg>
