<svg width="30" height="30" viewBox="0 0 30 30" fill="none" xmlns="http://www.w3.org/2000/svg">
<path fill-rule="evenodd" clip-rule="evenodd" d="M18 4.5C14.3165 4.5 11.2592 7.15721 10.626 10.6582C11.3494 10.523 12.0888 10.464 12.832 10.5469C13.8263 10.6581 13.6593 12.1493 12.665 12.0381C11.9365 11.9568 11.2071 12.0113 10.5088 12.1904C10.609 16.1751 13.8122 19.3834 17.7949 19.4912C17.9773 18.7811 18.0442 18.0434 17.959 17.3086C17.9017 16.8688 18.2364 16.4756 18.6797 16.4619C19.0737 16.4492 19.4103 16.7436 19.4502 17.1357C19.537 17.8845 19.5046 18.6376 19.3682 19.3711C22.8563 18.7275 25.5 15.6744 25.5 12C25.5 7.85787 22.1421 4.5 18 4.5ZM15.6475 11.7451C15.7984 11.7466 15.9455 11.7935 16.0693 11.8799C16.8806 12.4246 17.5766 13.1216 18.1201 13.9336C18.7287 14.7734 17.421 15.6504 16.875 14.7685C16.4402 14.1189 15.8834 13.5608 15.2344 13.125C14.6042 12.7174 14.897 11.7394 15.6475 11.7451Z" fill="white"/>
<path d="M8.22633 11.6367C8.08268 11.6413 7.94336 11.6871 7.82497 11.7686C5.31966 13.4467 4.06311 16.4695 4.63747 19.4297C5.21183 22.3899 7.50766 24.7194 10.4588 25.3389C13.4099 25.9583 16.4506 24.748 18.1668 22.2686C18.2266 22.1878 18.2695 22.0957 18.2931 21.998C18.3166 21.9002 18.3203 21.7988 18.3038 21.6996C18.2874 21.6004 18.2511 21.5055 18.1973 21.4206C18.1434 21.3357 18.0731 21.2625 17.9904 21.2053C17.9076 21.1482 17.8143 21.1082 17.7158 21.0878C17.6174 21.0675 17.5158 21.0671 17.4172 21.0867C17.3186 21.1064 17.225 21.1457 17.1418 21.2023C17.0587 21.2588 16.9878 21.3315 16.9334 21.416C15.5583 23.4027 13.131 24.3675 10.7664 23.8711C8.40179 23.3748 6.56838 21.5145 6.10817 19.1426C5.64796 16.7707 6.65254 14.3583 8.65993 13.0137C8.79653 12.9241 8.90016 12.7924 8.95504 12.6385C9.00992 12.4846 9.01307 12.317 8.964 12.1612C8.91493 12.0054 8.81633 11.8698 8.68319 11.7752C8.55004 11.6805 8.38963 11.6319 8.22633 11.6367Z" fill="white"/>
</svg>
