<svg width="30" height="30" viewBox="0 0 30 30" fill="none" xmlns="http://www.w3.org/2000/svg">
<path fill-rule="evenodd" clip-rule="evenodd" d="M15 4.5C9.2099 4.5 4.5 9.2099 4.5 15C4.5 20.7901 9.2099 25.5 15 25.5C20.7901 25.5 25.5 20.7901 25.5 15C25.5 9.2099 20.7901 4.5 15 4.5ZM15 6C19.9794 6 24 10.0206 24 15C24 19.9794 19.9794 24 15 24C10.0206 24 6 19.9794 6 15C6 10.0206 10.0206 6 15 6Z" fill="white"/>
<path d="M13.6933 7.45017C13.6085 7.45471 13.5242 7.46647 13.4414 7.48528C10.4365 8.10881 8.08406 10.4712 7.47654 13.4794C7.39768 13.8695 7.477 14.2749 7.69705 14.6065C7.91709 14.9381 8.25983 15.1686 8.64988 15.2475C9.03993 15.3264 9.44537 15.247 9.77694 15.027C10.1085 14.8069 10.3391 14.4642 10.4179 14.0741C10.7893 12.2353 12.2139 10.8049 14.0508 10.4238C14.4271 10.3557 14.7633 10.1464 14.9905 9.83878C15.2178 9.53111 15.3189 9.14828 15.2733 8.76853C15.2276 8.38878 15.0387 8.04079 14.745 7.79573C14.4513 7.55068 14.0751 7.42709 13.6933 7.45017Z" fill="white"/>
<path d="M21.7441 12.1436C21.6244 12.1432 21.5074 12.1787 21.408 12.2454C21.3087 12.312 21.2316 12.4069 21.1865 12.5178C21.1415 12.6286 21.1306 12.7504 21.1553 12.8675C21.18 12.9846 21.2392 13.0916 21.3251 13.1748L24.3251 16.1748C24.3809 16.2306 24.4472 16.2748 24.5201 16.305C24.5929 16.3352 24.6711 16.3508 24.7499 16.3508C24.8288 16.3508 24.9069 16.3352 24.9798 16.305C25.0527 16.2748 25.119 16.2306 25.1748 16.1748C25.2305 16.119 25.2748 16.0528 25.305 15.9799C25.3352 15.907 25.3507 15.8289 25.3507 15.75C25.3507 15.6711 25.3352 15.593 25.305 15.5201C25.2748 15.4472 25.2305 15.381 25.1748 15.3252L22.1748 12.3252C22.1188 12.2676 22.0518 12.2219 21.9778 12.1907C21.9038 12.1595 21.8244 12.1435 21.7441 12.1436ZM20.6191 15.5186C20.4994 15.5182 20.3824 15.5537 20.283 15.6204C20.1837 15.687 20.1066 15.7819 20.0615 15.8928C20.0165 16.0036 20.0056 16.1254 20.0303 16.2425C20.055 16.3596 20.1142 16.4666 20.2001 16.5498L23.2001 19.5498C23.3128 19.6625 23.4656 19.7258 23.6249 19.7258C23.7843 19.7258 23.9371 19.6625 24.0498 19.5498C24.1624 19.4371 24.2257 19.2843 24.2257 19.125C24.2257 18.9657 24.1624 18.8129 24.0498 18.7002L21.0498 15.7002C20.9938 15.6426 20.9268 15.5969 20.8528 15.5657C20.7788 15.5345 20.6994 15.5185 20.6191 15.5186ZM18.7441 18.1436C18.6244 18.1432 18.5074 18.1787 18.408 18.2454C18.3087 18.312 18.2316 18.4069 18.1865 18.5178C18.1415 18.6286 18.1306 18.7504 18.1553 18.8675C18.18 18.9846 18.2392 19.0916 18.3251 19.1748L21.3251 22.1748C21.4378 22.2875 21.5906 22.3508 21.7499 22.3508C21.9093 22.3508 22.0621 22.2875 22.1748 22.1748C22.2874 22.0621 22.3507 21.9093 22.3507 21.75C22.3507 21.5907 22.2874 21.4379 22.1748 21.3252L19.1748 18.3252C19.1188 18.2676 19.0518 18.2219 18.9778 18.1907C18.9038 18.1595 18.8244 18.1435 18.7441 18.1436ZM16.1191 20.0186C15.9994 20.0182 15.8824 20.0537 15.783 20.1204C15.6837 20.187 15.6066 20.2819 15.5615 20.3928C15.5165 20.5036 15.5056 20.6254 15.5303 20.7425C15.555 20.8596 15.6142 20.9666 15.7001 21.0498L18.7001 24.0498C18.8128 24.1625 18.9656 24.2258 19.1249 24.2258C19.2843 24.2258 19.4371 24.1625 19.5498 24.0498C19.6624 23.9371 19.7257 23.7843 19.7257 23.625C19.7257 23.4657 19.6624 23.3129 19.5498 23.2002L16.5498 20.2002C16.4938 20.1426 16.4268 20.0969 16.3528 20.0657C16.2788 20.0345 16.1994 20.0185 16.1191 20.0186ZM12.7646 21.1436C12.6398 21.1389 12.5167 21.1732 12.4124 21.2418C12.3081 21.3104 12.2278 21.4099 12.1827 21.5262C12.1375 21.6426 12.1298 21.7702 12.1606 21.8912C12.1914 22.0122 12.2592 22.1205 12.3544 22.2012L15.3544 24.8262C15.4135 24.8796 15.4825 24.9208 15.5576 24.9473C15.6327 24.9737 15.7123 24.985 15.7917 24.9804C15.8712 24.9759 15.949 24.9555 16.0206 24.9206C16.0921 24.8856 16.156 24.8368 16.2084 24.7769C16.2609 24.7171 16.301 24.6473 16.3262 24.5718C16.3515 24.4963 16.3615 24.4166 16.3557 24.3372C16.3498 24.2578 16.3282 24.1803 16.2921 24.1094C16.256 24.0384 16.2062 23.9753 16.1455 23.9238L13.1455 21.2988C13.0408 21.2038 12.9059 21.1488 12.7646 21.1436Z" fill="white"/>
</svg>
