<svg width="28" height="38" viewBox="0 0 28 38" fill="none" xmlns="http://www.w3.org/2000/svg">
<path d="M8.71094 0C6.83094 0 5.07639 0.597503 3.65234 1.61133C1.43817 3.1877 0 5.78784 0 8.71094V16.25C7.5e-05 16.9384 0.556692 17.4972 1.24512 17.5L11.2695 17.52C11.9599 17.5199 12.5195 16.9603 12.5195 16.27L12.5 1.33789V1.33293V1.24489C12.4975 0.556788 11.9383 7.5e-05 11.25 0H8.71094ZM15 0V2.5H18.7891C22.2504 2.5 25 5.24961 25 8.71094V28.7891C25 32.2504 22.2504 35 18.7891 35H8.71094C5.24964 35 2.5 32.2504 2.5 28.7891V20H0V28.7891C0 33.5921 3.90786 37.5 8.71094 37.5H18.7891C23.5921 37.5 27.5 33.5922 27.5 28.7891V8.71094C27.5 3.90786 23.5921 0 18.7891 0H15Z" fill="white"/>
</svg>
