<svg width="22" height="22" viewBox="0 0 22 22" fill="none" xmlns="http://www.w3.org/2000/svg">
<path opacity="0.6" fill-rule="evenodd" clip-rule="evenodd" d="M20.2617 10.5058C20.2617 15.8939 15.8939 20.2617 10.5059 20.2617C5.11784 20.2617 0.75 15.8939 0.75 10.5058C0.75 5.11783 5.11784 0.75 10.5059 0.75C15.8939 0.75 20.2617 5.11783 20.2617 10.5058Z" fill="white"/>
<path fill-rule="evenodd" clip-rule="evenodd" d="M10.5059 0C4.71252 0 6e-06 4.71251 0 10.5059C-3e-06 16.2992 4.71251 21.0117 10.5059 21.0117C16.2992 21.0117 21.0117 16.2992 21.0117 10.5059C21.0117 4.71251 16.2992 0 10.5059 0ZM10.5059 1.5C15.4885 1.5 19.5117 5.52317 19.5117 10.5059C19.5117 15.4885 15.4885 19.5117 10.5059 19.5117C5.52317 19.5117 1.5 15.4885 1.5 10.5059C1.5 5.52317 5.52317 1.5 10.5059 1.5Z" fill="white"/>
</svg>
