<svg width="21" height="22" viewBox="0 0 21 22" fill="none" xmlns="http://www.w3.org/2000/svg">
<g clip-path="url(#clip0_18_2902)">
<path d="M0 6.01758V9.01758H1.5V7.51758H3V6.01758H0ZM0 12.0176V15.0176H1.5V12.0176H0ZM0 18.0176V21.0176H3V19.5176H1.5V18.0176H0ZM13.5 18.0176V19.5176H12V21.0176H15V18.0176H13.5ZM6 19.5176V21.0176H9V19.5176H6Z" fill="white"/>
<path d="M6.73829 0C6.32295 4.5e-05 5.98671 0.337595 5.98829 0.75293L6.00028 6.76172C6.00033 7.17591 6.33609 7.51167 6.75028 7.51172H13.5003V14.2646C13.5003 14.6788 13.8361 15.0146 14.2503 15.0146H20.2503C20.6645 15.0146 21.0002 14.6788 21.0003 14.2646V0.764648C21.0002 0.350453 20.6645 0.0146934 20.2503 0.0146484L6.73829 0Z" fill="white"/>
</g>
<defs>
<clipPath id="clip0_18_2902">
<rect width="21" height="22" fill="white"/>
</clipPath>
</defs>
</svg>
