<svg width="30" height="30" viewBox="0 0 30 30" fill="none" xmlns="http://www.w3.org/2000/svg">
<path opacity="0.99" d="M20.2529 4.5C17.3635 4.5 15.0059 6.85767 15.0059 9.74707C15.0059 12.6365 17.3635 14.9941 20.2529 14.9941C23.1423 14.9941 25.5 12.6365 25.5 9.74707C25.5 6.85767 23.1423 4.5 20.2529 4.5ZM20.2529 5.99414C20.3523 5.99274 20.451 6.0111 20.5432 6.04816C20.6354 6.08522 20.7194 6.14024 20.7902 6.21002C20.8609 6.27981 20.9171 6.36296 20.9555 6.45465C20.9939 6.54634 21.0136 6.64475 21.0136 6.74414C21.0136 6.84353 20.9939 6.94194 20.9555 7.03363C20.9171 7.12532 20.8609 7.20848 20.7902 7.27826C20.7194 7.34804 20.6354 7.40306 20.5432 7.44012C20.451 7.47718 20.3523 7.49555 20.2529 7.49414C19.0002 7.49414 18 8.49432 18 9.74707C18.0014 9.84645 17.983 9.94516 17.946 10.0374C17.9089 10.1296 17.8539 10.2135 17.7841 10.2843C17.7143 10.3551 17.6312 10.4113 17.5395 10.4496C17.4478 10.488 17.3494 10.5078 17.25 10.5078C17.1506 10.5078 17.0522 10.488 16.9605 10.4496C16.8688 10.4113 16.7857 10.3551 16.7159 10.2843C16.6461 10.2135 16.5911 10.1296 16.554 10.0374C16.517 9.94516 16.4986 9.84645 16.5 9.74707C16.5 7.68366 18.1895 5.99414 20.2529 5.99414Z" fill="white"/>
<path opacity="0.8" d="M11.2558 10.4884C11.0827 10.4875 10.9146 10.5466 10.78 10.6555C10.6454 10.7644 10.5527 10.9166 10.5175 11.0861L9.98138 13.5001H6.74994C6.65056 13.4987 6.55188 13.5171 6.45966 13.5541C6.36743 13.5912 6.28349 13.6462 6.21271 13.716C6.14194 13.7858 6.08573 13.8689 6.04737 13.9606C6.00901 14.0523 5.98926 14.1507 5.98926 14.2501C5.98926 14.3495 6.00901 14.4479 6.04737 14.5396C6.08573 14.6313 6.14194 14.7145 6.21271 14.7843C6.28349 14.854 6.36743 14.9091 6.45966 14.9461C6.55188 14.9832 6.65056 15.0015 6.74994 15.0001H9.6474L8.64838 19.5001H5.24994C5.15056 19.4987 5.05188 19.5171 4.95966 19.5541C4.86743 19.5912 4.78349 19.6462 4.71271 19.716C4.64194 19.7858 4.58573 19.8689 4.54737 19.9606C4.50901 20.0523 4.48926 20.1507 4.48926 20.2501C4.48926 20.3495 4.50901 20.4479 4.54737 20.5396C4.58573 20.6313 4.64194 20.7145 4.71271 20.7843C4.78349 20.854 4.86743 20.9091 4.95966 20.9461C5.05188 20.9832 5.15056 21.0015 5.24994 21.0001H8.31439L7.51752 24.5861C7.49596 24.6823 7.49357 24.7817 7.51046 24.8789C7.52736 24.976 7.56322 25.0688 7.616 25.152C7.66877 25.2353 7.73743 25.3074 7.81805 25.3641C7.89867 25.4208 7.98967 25.4611 8.08586 25.4826C8.18204 25.5042 8.28153 25.5065 8.37865 25.4896C8.47576 25.4727 8.56859 25.4369 8.65184 25.3841C8.73509 25.3314 8.80712 25.2626 8.86383 25.182C8.92055 25.1014 8.96082 25.0104 8.98236 24.9142L9.85248 21.0001H20.2968L21.0117 24.8849C21.0294 24.9819 21.066 25.0744 21.1194 25.1572C21.1729 25.24 21.2421 25.3114 21.3232 25.3675C21.4043 25.4235 21.4956 25.463 21.5919 25.4837C21.6883 25.5045 21.7877 25.5061 21.8847 25.4884C21.9817 25.4707 22.0742 25.4341 22.157 25.3807C22.2398 25.3272 22.3112 25.2579 22.3673 25.1769C22.4233 25.0958 22.4628 25.0045 22.4836 24.9082C22.5043 24.8118 22.5059 24.7123 22.4882 24.6154L21.8203 21.0001H24.7499C24.8493 21.0015 24.948 20.9832 25.0402 20.9461C25.1324 20.9091 25.2164 20.854 25.2872 20.7843C25.3579 20.7145 25.4141 20.6313 25.4525 20.5396C25.4909 20.4479 25.5106 20.3495 25.5106 20.2501C25.5106 20.1507 25.4909 20.0523 25.4525 19.9606C25.4141 19.8689 25.3579 19.7858 25.2872 19.716C25.2164 19.6462 25.1324 19.5912 25.0402 19.5541C24.948 19.5171 24.8493 19.4987 24.7499 19.5001H21.5449L21.0937 17.0568C21.0798 16.9564 21.0457 16.8598 20.9935 16.773C20.9412 16.6861 20.8719 16.6107 20.7897 16.5514C20.7075 16.4921 20.6142 16.45 20.5153 16.4278C20.4164 16.4056 20.314 16.4036 20.2143 16.422C20.1146 16.4405 20.0197 16.4789 19.9353 16.535C19.8509 16.5911 19.7788 16.6638 19.7232 16.7486C19.6677 16.8334 19.6299 16.9285 19.6122 17.0283C19.5945 17.1281 19.5971 17.2305 19.6201 17.3292L20.0185 19.5001H10.1865L11.1855 15.0001H14.2499C14.3493 15.0015 14.448 14.9832 14.5402 14.9461C14.6324 14.9091 14.7164 14.854 14.7872 14.7843C14.8579 14.7145 14.9141 14.6313 14.9525 14.5396C14.9909 14.4479 15.0106 14.3495 15.0106 14.2501C15.0106 14.1507 14.9909 14.0523 14.9525 13.9606C14.9141 13.8689 14.8579 13.7858 14.7872 13.716C14.7164 13.6462 14.6324 13.5912 14.5402 13.5541C14.448 13.5171 14.3493 13.4987 14.2499 13.5001H11.5195L11.9824 11.4142C12.0089 11.3041 12.0101 11.1895 11.986 11.0788C11.9619 10.9682 11.9131 10.8645 11.8432 10.7754C11.7733 10.6864 11.6842 10.6143 11.5824 10.5646C11.4807 10.5149 11.369 10.4888 11.2558 10.4884Z" fill="white"/>
</svg>
