<svg width="30" height="30" viewBox="0 0 30 30" fill="none" xmlns="http://www.w3.org/2000/svg">
<path fill-rule="evenodd" clip-rule="evenodd" d="M15 4.5C9.20989 4.5 4.5 9.20988 4.5 15C4.5 20.7901 9.20989 25.5 15 25.5C20.7901 25.5 25.5 20.7901 25.5 15C25.5 9.20988 20.7901 4.5 15 4.5ZM15 6C19.9794 6 24 10.0205 24 15C24 19.9794 19.9795 24 15 24C10.0205 24 6 19.9794 6 15C6 10.0205 10.0206 6 15 6Z" fill="white"/>
<path opacity="0.8" fill-rule="evenodd" clip-rule="evenodd" d="M14.9765 4.8662C14.8673 4.87063 14.7603 4.89888 14.6632 4.94898C14.566 4.99909 14.481 5.06982 14.414 5.15624C13.3543 6.48086 12.6602 8.15121 12.2988 10.5H6.37494C5.3607 10.485 5.3607 12.0143 6.37494 12H12.123C12.0447 12.9096 12 13.895 12 15C12 16.105 12.0448 17.0903 12.123 18H6.37494C5.3607 17.985 5.3607 19.5143 6.37494 19.5H12.2988C12.6603 21.8488 13.3544 23.5192 14.414 24.8437C14.5386 24.9982 14.7194 25.0971 14.9167 25.1186C15.114 25.1401 15.3119 25.0826 15.4669 24.9586C15.6219 24.8346 15.7214 24.6542 15.7437 24.457C15.766 24.2598 15.7093 24.0617 15.5859 23.9062C14.7375 22.8458 14.14 21.5114 13.8076 19.5H23.6249C24.6392 19.515 24.6392 17.9856 23.6249 18H13.623C13.5441 17.1142 13.5 16.1288 13.5 15C13.5 13.8712 13.5441 12.8858 13.623 12H23.6249C24.6392 12.015 24.6392 10.4856 23.6249 10.5H13.8076C14.14 8.48855 14.7376 7.15406 15.5859 6.09374C15.6783 5.98201 15.7364 5.84588 15.7531 5.70183C15.7697 5.55779 15.7442 5.41199 15.6798 5.2821C15.6153 5.15221 15.5145 5.0438 15.3897 4.96998C15.2649 4.89617 15.1214 4.86012 14.9765 4.8662Z" fill="white"/>
</svg>
