<svg width="28" height="38" viewBox="0 0 28 38" fill="none" xmlns="http://www.w3.org/2000/svg">
<path d="M8.71094 0C3.90786 0 0 3.90786 0 8.71094V28.7891C0 33.5921 3.90786 37.5 8.71094 37.5H18.7891C23.5921 37.5 27.5 33.5921 27.5 28.7891V8.71094C27.5 3.90786 23.5921 0 18.7891 0H8.71094ZM8.71094 2.5H18.7891C22.2504 2.5 25 5.24961 25 8.71094V28.7891C25 32.2504 22.2504 35 18.7891 35H8.71094C5.24961 35 2.5 32.2504 2.5 28.7891V8.71094C2.5 5.24961 5.24961 2.5 8.71094 2.5ZM12.6172 5C11.1889 5 10 6.18886 10 7.61719V17.3828C10 18.8111 11.1889 20 12.6172 20H14.8828C16.3111 20 17.5 18.8111 17.5 17.3828V7.61719C17.5 6.18886 16.3111 5 14.8828 5H12.6172Z" fill="white"/>
</svg>
